<svg width="32" height="30" viewBox="0 0 32 30" fill="none" xmlns="http://www.w3.org/2000/svg">
<path d="M16.292 30C5.72263 30 0 24.8538 0 15.3801C0 5.90643 6.59854 0 16.6423 0C26.1022 0 32 5.26316 32 14.6784C32 15.3801 31.9416 16.0819 31.8832 16.6667H11.7372C11.854 21.2866 13.4307 23.6257 16.5255 23.6257C19.0365 23.6257 20.3212 22.2807 20.6715 19.6491H31.7664C30.8905 25.7895 25.8686 30 16.292 30ZM11.7956 11.5205H20.6715C20.3796 7.66082 18.8029 6.31579 16.4672 6.31579C13.781 6.31579 12.146 8.18713 11.7956 11.5205Z" fill="black"/>
</svg>
